<svg xmlns="http://www.w3.org/2000/svg" width="24" height="38" viewBox="0 0 24 38"><defs><clipPath id="1pb0a"><path fill="#fff" d="M.35 11.16c0-6.075 4.925-11 11-11h1.292c6.075 0 11 4.925 11 11v15.626c0 6.075-4.925 11-11 11H11.35c-6.075 0-11-4.925-11-11z"/></clipPath></defs><g><g><path fill="none" stroke="#8094c2" stroke-miterlimit="50" stroke-width="3" d="M.35 11.16c0-6.075 4.925-11 11-11h1.292c6.075 0 11 4.925 11 11v15.626c0 6.075-4.925 11-11 11H11.35c-6.075 0-11-4.925-11-11z" clip-path="url(&quot;#1pb0a&quot;)"/></g><g><path fill="none" stroke="#8094c2" stroke-miterlimit="50" stroke-width="1.5" d="M12 15.97v11.509"/></g><g><path fill="#8094c2" d="M12 11.97a2 2 0 1 0 0-4 2 2 0 0 0 0 4z"/></g><g><path fill="none" stroke="#8094c2" stroke-miterlimit="50" stroke-width="1.5" d="M7.76 23.95v0l4.242 4.242v0l4.241-4.242v0"/></g></g></svg>